<svg width="587" height="424" viewBox="0 0 587 424" fill="none" xmlns="http://www.w3.org/2000/svg">
<path fill-rule="evenodd" clip-rule="evenodd" d="M320.934 286.614C319.226 288.854 321.94 291.768 324.296 290.223L620.938 95.608C627.922 91.207 629.905 81.813 625.13 75.101C608.434 51.697 587.497 32.748 562.32 18.416C560.82 17.557 559.313 16.751 557.813 15.946C552.125 12.886 545.09 13.905 540.583 18.522C540.583 18.522 362.225 232.45 320.934 286.614Z" fill="white"/>
<path fill-rule="evenodd" clip-rule="evenodd" d="M616.664 297.932L205.344 401.595L205.023 401.686L0.727051 453.167H410.983L411.065 453.162C442.959 449.337 473.941 440.202 504.061 425.649C544.92 405.936 579.315 378.142 607.297 342.176C614.698 332.693 621.432 322.707 627.449 312.29C631.759 304.824 625.023 295.824 616.664 297.932Z" fill="white"/>
<path fill-rule="evenodd" clip-rule="evenodd" d="M656.906 148.967C655.618 141.72 647.562 137.91 641.066 141.398C641.066 141.398 340.623 311.066 270.064 352.808C267.564 354.287 269.219 358.101 272.027 357.354L636.989 260.141C645.526 257.887 652.234 251.069 654.169 242.426C655.563 235.984 656.799 229.488 657.765 222.886C659.482 210.218 660.395 198.783 660.395 188.476C660.395 174.842 659.216 161.636 656.905 148.966L656.906 148.967Z" fill="white"/>
<path fill-rule="evenodd" clip-rule="evenodd" d="M477.1 -10.451C472.506 -10.762 467.902 -10.9181 463.297 -10.919H311.683C310.332 -10.9124 308.981 -10.9008 307.63 -10.884C339.128 33.876 357.68 88.404 357.68 147.296C357.68 165.113 355.948 182.519 352.697 199.388C352.189 202.044 355.754 203.439 357.245 201.183L484.882 7.987C490.825 0.98 486.264 -9.83 477.1 -10.451Z" fill="white"/>
</svg>
